<svg version="1.1" id="Layer_1" xmlns="http://www.w3.org/2000/svg" xmlns:xlink="http://www.w3.org/1999/xlink" x="0px" y="0px"
	 width="100%" viewBox="0 0 144 144" enable-background="new 0 0 144 144" xml:space="preserve">
<path fill="#F6F3EB" opacity="1.000000" stroke="none" 
	d="
M145.000000,59.000000 
	C145.000000,87.975243 145.000000,116.450493 145.000000,144.962860 
	C97.066475,144.962860 49.132912,144.962860 1.099674,144.962860 
	C1.099674,97.108330 1.099674,49.216377 1.099674,1.162215 
	C48.999557,1.162215 96.999733,1.162215 145.000000,1.162215 
	C145.000000,20.200037 145.000000,39.350018 145.000000,59.000000 
M134.357605,80.500122 
	C134.324127,66.505989 134.581467,52.503544 134.181686,38.519890 
	C133.709183,21.992506 124.391747,13.133489 107.878883,13.064568 
	C84.554672,12.967217 61.229408,12.966220 37.905231,13.068621 
	C21.515966,13.140574 12.137002,21.875580 11.879276,38.149319 
	C11.512635,61.300339 11.525507,84.466057 11.896492,107.617157 
	C12.164244,124.326103 21.419249,133.006958 38.045952,133.057785 
	C61.037178,133.128067 84.028900,133.117081 107.020187,133.056396 
	C124.736961,133.009644 133.789658,124.216629 134.273666,106.489403 
	C134.500931,98.165100 134.341370,89.830231 134.357605,80.500122 
z"/>
<path fill="#38ABAC" opacity="1.000000" stroke="none" 
	d="
M134.357361,81.000137 
	C134.341370,89.830231 134.500931,98.165100 134.273666,106.489403 
	C133.789658,124.216629 124.736961,133.009644 107.020187,133.056396 
	C84.028900,133.117081 61.037178,133.128067 38.045952,133.057785 
	C21.419249,133.006958 12.164244,124.326103 11.896492,107.617157 
	C11.525507,84.466057 11.512635,61.300339 11.879276,38.149319 
	C12.137002,21.875580 21.515966,13.140574 37.905231,13.068621 
	C61.229408,12.966220 84.554672,12.967217 107.878883,13.064568 
	C124.391747,13.133489 133.709183,21.992506 134.181686,38.519890 
	C134.581467,52.503544 134.324127,66.505989 134.357361,81.000137 
M110.893913,62.367188 
	C110.939552,57.424755 111.018570,52.482330 111.019653,47.539886 
	C111.020439,43.956627 109.815933,41.098469 105.728821,39.313599 
	C103.962357,29.907608 96.610977,29.681683 89.786430,28.995821 
	C88.473602,26.294466 86.828011,22.984329 84.596077,22.525335 
	C79.425285,21.461966 79.841202,26.682993 78.702522,29.838076 
	C69.141945,29.838076 59.861874,29.838076 50.581806,29.838076 
	C50.884979,29.461828 51.188156,29.085581 51.491329,28.709333 
	C49.480976,26.560474 47.742073,23.009600 45.403343,22.556797 
	C40.643993,21.635330 40.689339,26.441019 39.832973,29.749281 
	C38.855957,29.835508 38.041111,29.947153 37.223511,29.973534 
	C27.270664,30.294657 24.257463,33.379364 24.248163,43.404072 
	C24.229477,63.548729 24.322962,83.693916 24.195866,103.837784 
	C24.157314,109.948013 26.164774,114.523888 32.051029,117.755539 
	C33.787201,121.508682 37.019882,122.102104 40.715603,122.088196 
	C56.592949,122.028450 72.470772,122.090431 88.348030,122.020859 
	C89.901810,122.014053 91.452972,121.409843 93.920319,121.079506 
	C94.750015,121.100792 95.579643,121.136681 96.409431,121.141235 
	C116.893303,121.253639 131.170807,103.788155 126.862686,83.796494 
	C124.827133,74.350563 118.401093,68.290886 110.893913,62.367188 
z"/>
<path fill="#0D2732" opacity="1.000000" stroke="none" 
	d="
M31.961452,117.039528 
	C26.164774,114.523888 24.157314,109.948013 24.195866,103.837784 
	C24.322962,83.693916 24.229477,63.548729 24.248163,43.404072 
	C24.257463,33.379364 27.270664,30.294657 37.223511,29.973534 
	C38.041111,29.947153 38.855957,29.835508 39.832973,29.749281 
	C40.689339,26.441019 40.643993,21.635330 45.403343,22.556797 
	C47.742073,23.009600 49.480976,26.560474 51.491329,28.709333 
	C51.188156,29.085581 50.884979,29.461828 50.581806,29.838076 
	C59.861874,29.838076 69.141945,29.838076 78.702522,29.838076 
	C79.841202,26.682993 79.425285,21.461966 84.596077,22.525335 
	C86.828011,22.984329 88.473602,26.294466 89.786430,28.995821 
	C96.610977,29.681683 103.962357,29.907608 105.814285,40.089180 
	C105.667488,46.304817 105.309212,51.743458 105.248474,57.185425 
	C105.209770,60.654240 106.447678,63.389252 110.639992,63.335766 
	C118.401093,68.290886 124.827133,74.350563 126.862686,83.796494 
	C131.170807,103.788155 116.893303,121.253639 96.409431,121.141235 
	C95.579643,121.136681 94.750015,121.100792 93.251221,120.779228 
	C88.823784,119.294548 85.085068,117.167458 81.303734,117.088799 
	C64.863083,116.746849 48.410011,117.001602 31.961452,117.039528 
M77.872459,113.123886 
	C77.297852,112.724144 76.723236,112.324394 76.040421,111.216087 
	C70.640556,103.483345 67.466591,95.143806 69.270676,85.533249 
	C72.084587,70.543335 83.203064,61.984554 101.626740,61.114189 
	C101.748016,60.743614 101.869301,60.373039 102.228127,59.137482 
	C102.138489,56.755928 102.048851,54.374374 102.014633,51.338791 
	C101.664032,51.175266 101.313423,51.011742 100.104233,50.574818 
	C97.417412,50.662868 94.730583,50.750923 91.286263,50.612438 
	C90.507172,50.689045 89.728073,50.765656 88.051010,50.572697 
	C83.915825,50.579662 79.780579,50.575325 75.645454,50.595604 
	C60.109196,50.671799 44.572979,50.756027 28.336451,50.801819 
	C28.198662,51.207409 28.060873,51.612999 27.699142,52.930553 
	C27.685205,70.365974 27.645311,87.801437 27.672880,105.236794 
	C27.681339,110.587250 29.665834,113.357391 34.255547,113.393593 
	C47.852200,113.500832 61.451550,113.266205 75.541794,113.393883 
	C76.044731,113.538315 76.547676,113.682739 77.222435,114.159874 
	C77.456734,114.022820 77.691032,113.885765 77.872459,113.123886 
M29.949873,47.268322 
	C53.623207,47.208649 77.296539,47.148975 101.598495,47.059742 
	C101.747536,46.701332 101.896576,46.342922 102.167427,45.103020 
	C102.192825,34.312397 99.113846,31.593885 89.302536,33.806133 
	C88.292732,37.054592 90.750412,42.394627 84.875488,42.857155 
	C77.650238,43.425995 80.823105,36.719734 79.100639,33.477318 
	C69.376823,33.477318 59.815273,33.477318 50.249809,33.477318 
	C49.367863,37.194721 51.571625,42.476475 45.719238,42.869640 
	C38.729122,43.339241 41.349213,36.894379 39.971603,33.531067 
	C30.428040,32.421139 27.672890,34.471428 27.688988,42.490414 
	C27.691317,43.650246 27.833509,44.809803 27.947622,46.602913 
	C28.308743,46.763508 28.669863,46.924103 29.949873,47.268322 
M78.822456,73.353004 
	C70.406548,83.875496 69.621964,95.855957 76.684738,105.995750 
	C83.569519,115.880005 95.634590,119.987701 106.573250,116.171661 
	C116.911697,112.565002 124.114594,102.965881 124.618050,92.123764 
	C125.105316,81.630325 118.791626,71.396225 109.048065,66.885857 
	C99.069611,62.266747 88.138687,64.444771 78.822456,73.353004 
M46.994446,34.375320 
	C46.992798,32.896492 47.229675,31.366371 46.925625,29.952579 
	C46.589462,28.389463 45.757946,26.932878 45.142162,25.429899 
	C44.446598,26.855318 43.439816,28.218122 43.137146,29.722584 
	C42.787735,31.459370 42.762589,33.387135 43.146301,35.109516 
	C43.513672,36.758530 44.585880,38.250519 45.348305,39.811523 
	C45.897243,38.302055 46.446182,36.792587 46.994446,34.375320 
M85.996178,33.471142 
	C85.989052,31.639103 86.181023,29.774918 85.892563,27.988302 
	C85.743591,27.065628 84.741310,26.280729 84.124573,25.433578 
	C83.456528,26.235479 82.272804,27.000557 82.212440,27.845850 
	C81.987724,30.992756 81.990005,34.176880 82.230583,37.322289 
	C82.296608,38.185612 83.490280,38.962688 84.166504,39.779343 
	C84.773163,38.977650 85.613274,38.255356 85.920586,37.351845 
	C86.225662,36.454910 85.994507,35.375595 85.996178,33.471142 
z"/>
<path fill="#1B7784" opacity="1.000000" stroke="none" 
	d="
M32.006241,117.397537 
	C48.410011,117.001602 64.863083,116.746849 81.303734,117.088799 
	C85.085068,117.167458 88.823784,119.294548 92.793732,120.780945 
	C91.452972,121.409843 89.901810,122.014053 88.348030,122.020859 
	C72.470772,122.090431 56.592949,122.028450 40.715603,122.088196 
	C37.019882,122.102104 33.787201,121.508682 32.006241,117.397537 
z"/>
<path fill="#1B727F" opacity="1.000000" stroke="none" 
	d="
M110.766953,62.851479 
	C106.447678,63.389252 105.209770,60.654240 105.248474,57.185425 
	C105.309212,51.743458 105.667488,46.304817 105.971619,40.412548 
	C109.815933,41.098469 111.020439,43.956627 111.019653,47.539886 
	C111.018570,52.482330 110.939552,57.424755 110.766953,62.851479 
z"/>
<path fill="#F2F2E9" opacity="1.000000" stroke="none" 
	d="
M92.043762,50.838974 
	C94.730583,50.750923 97.417412,50.662868 100.644318,50.947342 
	C101.442673,51.544186 101.700943,51.768505 101.959213,51.992821 
	C102.048851,54.374374 102.138489,56.755928 101.892433,59.685677 
	C101.290825,60.442844 101.103699,60.707520 100.995354,61.027901 
	C83.203064,61.984554 72.084587,70.543335 69.270676,85.533249 
	C67.466591,95.143806 70.640556,103.483345 75.849396,111.716492 
	C75.455528,112.533020 75.252686,112.849136 75.049843,113.165260 
	C61.451550,113.266205 47.852200,113.500832 34.255547,113.393593 
	C29.665834,113.357391 27.681339,110.587250 27.672880,105.236794 
	C27.645311,87.801437 27.685205,70.365974 28.053955,52.337914 
	C28.618095,51.442596 28.827419,51.139919 29.036743,50.837242 
	C44.572979,50.756027 60.109196,50.671799 75.645454,50.595604 
	C79.780579,50.575325 83.915825,50.579662 88.687103,50.977249 
	C90.230057,51.200859 91.136909,51.019913 92.043762,50.838974 
M46.958061,80.201172 
	C47.642403,79.354973 48.510677,78.594261 48.955627,77.636818 
	C49.344574,76.799889 49.257236,75.741623 49.380314,74.781136 
	C48.436176,74.989876 47.449505,75.092079 46.563293,75.445900 
	C45.999889,75.670837 45.585686,76.269470 44.220222,76.523575 
	C33.687168,76.170860 32.802959,77.375839 35.343616,88.720444 
	C39.192448,88.720444 43.052311,88.720444 46.820805,88.720444 
	C46.820805,85.840019 46.820805,83.368263 46.958061,80.201172 
M44.134167,57.898235 
	C43.306950,57.884823 42.479763,57.862194 41.652512,57.859440 
	C34.423351,57.835388 34.321461,57.840137 34.590450,65.244987 
	C34.654770,67.015694 35.432800,70.138138 36.247269,70.263168 
	C39.603180,70.778343 43.298725,70.991318 46.432285,69.971825 
	C47.478874,69.631317 47.235378,65.281677 47.538570,62.759541 
	C47.573681,62.467457 47.332169,62.142124 47.566597,61.167477 
	C48.181007,59.572178 48.795418,57.976875 49.409828,56.381577 
	C47.951656,56.936317 46.493488,57.491062 44.134167,57.898235 
M47.486691,98.114349 
	C48.367043,96.634216 49.247391,95.154091 50.127739,93.673965 
	C49.833801,93.306107 49.539864,92.938255 49.245926,92.570404 
	C47.877048,93.284012 46.508171,93.997612 44.265404,94.470032 
	C43.106167,94.428619 41.928024,94.506096 40.790939,94.325348 
	C35.700638,93.516144 33.717319,95.663589 34.470730,100.681198 
	C34.665897,101.980995 34.305748,103.387016 34.620644,104.638588 
	C34.863079,105.602135 35.736729,107.126770 36.376087,107.150467 
	C39.812428,107.277832 43.502167,107.657913 46.573681,106.519180 
	C47.586567,106.143654 47.015251,101.495064 47.486691,98.114349 
M69.460785,60.227852 
	C65.143990,60.232960 60.823273,60.143532 56.513695,60.322392 
	C55.644604,60.358463 54.817711,61.411324 53.971363,61.995399 
	C54.748688,62.655464 55.516411,63.875069 56.304836,63.888599 
	C63.773327,64.016785 71.246536,63.996323 78.714554,63.838081 
	C79.495193,63.821541 80.251175,62.640709 81.018600,62.000076 
	C80.148422,61.419144 79.315681,60.418369 78.400978,60.336800 
	C75.764725,60.101723 73.095398,60.237518 69.460785,60.227852 
M56.005619,68.133987 
	C55.314556,68.881584 54.623493,69.629181 53.932434,70.376778 
	C54.867420,70.896545 55.784950,71.824051 56.740440,71.864967 
	C60.716755,72.035248 64.710907,72.062019 68.683746,71.856331 
	C69.730591,71.802124 70.724579,70.726730 71.742844,70.120277 
	C70.781029,69.451584 69.849068,68.262917 68.852135,68.205666 
	C64.881020,67.977608 60.889648,68.102089 56.005619,68.133987 
M63.643574,100.645035 
	C64.273529,99.987999 64.903481,99.330963 65.533440,98.673927 
	C64.836525,98.110245 64.175308,97.122597 63.436165,97.060356 
	C60.967598,96.852524 58.460670,96.848923 55.991901,97.052147 
	C55.275784,97.111092 54.638363,98.126060 53.964863,98.702766 
	C54.600677,99.342438 55.181553,100.453522 55.882397,100.535202 
	C58.173126,100.802170 60.507565,100.694107 63.643574,100.645035 
M55.852764,78.778854 
	C55.426308,79.672523 54.410133,81.068886 54.671864,81.375931 
	C56.068428,83.014297 64.837578,81.903809 67.854958,78.731483 
	C63.358631,78.731483 60.064644,78.731483 55.852764,78.778854 
M61.290493,90.110992 
	C62.202686,89.622887 63.114883,89.134781 64.027077,88.646675 
	C63.564381,88.075310 63.127209,87.036461 62.634781,87.009583 
	C59.758656,86.852547 56.869583,86.932579 53.984886,86.932579 
	C53.947269,87.783836 53.909653,88.635101 53.872040,89.486359 
	C56.041626,89.696945 58.211212,89.907532 61.290493,90.110992 
z"/>
<path fill="#E06644" opacity="1.000000" stroke="none" 
	d="
M79.057800,73.083817 
	C88.138687,64.444771 99.069611,62.266747 109.048065,66.885857 
	C118.791626,71.396225 125.105316,81.630325 124.618050,92.123764 
	C124.114594,102.965881 116.911697,112.565002 106.573250,116.171661 
	C95.634590,119.987701 83.569519,115.880005 76.684738,105.995750 
	C69.621964,95.855957 70.406548,83.875496 79.057800,73.083817 
M103.148232,92.593674 
	C106.414886,95.753677 109.681541,98.913689 113.232300,102.707466 
	C114.471138,102.536270 116.349861,102.822876 116.850296,102.123390 
	C122.131851,94.741096 120.559319,82.357964 113.692604,75.617561 
	C106.148277,68.212021 94.544998,66.781624 86.790733,72.178375 
	C84.537277,73.746712 84.747169,74.873245 87.208122,76.700768 
	C90.471405,79.900116 93.734680,83.099472 97.309029,86.845314 
	C99.140862,88.565071 100.972702,90.284828 103.148232,92.593674 
M109.163887,104.306793 
	C100.093338,95.347244 91.022797,86.387688 81.908501,77.384926 
	C74.327431,86.900154 75.307404,99.310493 83.774193,107.209869 
	C91.853310,114.747559 103.841003,114.887299 111.902252,107.408363 
	C111.159370,106.544350 110.410271,105.673111 109.163887,104.306793 
z"/>
<path fill="#E36844" opacity="1.000000" stroke="none" 
	d="
M27.910978,45.969486 
	C27.833509,44.809803 27.691317,43.650246 27.688988,42.490414 
	C27.672890,34.471428 30.428040,32.421139 39.971603,33.531067 
	C41.349213,36.894379 38.729122,43.339241 45.719238,42.869640 
	C51.571625,42.476475 49.367863,37.194721 50.249809,33.477318 
	C59.815273,33.477318 69.376823,33.477318 79.100639,33.477318 
	C80.823105,36.719734 77.650238,43.425995 84.875488,42.857155 
	C90.750412,42.394627 88.292732,37.054592 89.302536,33.806133 
	C99.113846,31.593885 102.192825,34.312397 101.872437,45.668499 
	C101.374924,46.519089 101.172401,46.804195 100.969872,47.089302 
	C77.296539,47.148975 53.623207,47.208649 29.363968,46.935879 
	C28.489035,46.392120 28.200006,46.180805 27.910978,45.969486 
z"/>
<path fill="#3F525E" opacity="1.000000" stroke="none" 
	d="
M46.994785,34.829216 
	C46.446182,36.792587 45.897243,38.302055 45.348305,39.811523 
	C44.585880,38.250519 43.513672,36.758530 43.146301,35.109516 
	C42.762589,33.387135 42.787735,31.459370 43.137146,29.722584 
	C43.439816,28.218122 44.446598,26.855318 45.142162,25.429899 
	C45.757946,26.932878 46.589462,28.389463 46.925625,29.952579 
	C47.229675,31.366371 46.992798,32.896492 46.994785,34.829216 
z"/>
<path fill="#3F535F" opacity="1.000000" stroke="none" 
	d="
M85.997345,33.923702 
	C85.994507,35.375595 86.225662,36.454910 85.920586,37.351845 
	C85.613274,38.255356 84.773163,38.977650 84.166504,39.779343 
	C83.490280,38.962688 82.296608,38.185612 82.230583,37.322289 
	C81.990005,34.176880 81.987724,30.992756 82.212440,27.845850 
	C82.272804,27.000557 83.456528,26.235479 84.124573,25.433580 
	C84.741310,26.280729 85.743591,27.065628 85.892563,27.988302 
	C86.181023,29.774918 85.989052,31.639103 85.997345,33.923702 
z"/>
<path fill="#FEFEF9" opacity="1.000000" stroke="none" 
	d="
M75.295822,113.279572 
	C75.252686,112.849136 75.455528,112.533020 75.903503,112.070778 
	C76.723236,112.324394 77.297852,112.724144 77.673874,113.385254 
	C77.475288,113.646622 77.050613,113.827164 77.050613,113.827164 
	C76.547676,113.682739 76.044731,113.538315 75.295822,113.279572 
z"/>
<path fill="#FFFFF9" opacity="1.000000" stroke="none" 
	d="
M91.665009,50.725704 
	C91.136909,51.019913 90.230057,51.200859 89.136093,51.112038 
	C89.728073,50.765656 90.507172,50.689045 91.665009,50.725704 
z"/>
<path fill="#F76E46" opacity="1.000000" stroke="none" 
	d="
M27.929300,46.286201 
	C28.200006,46.180805 28.489035,46.392120 28.904522,46.844063 
	C28.669863,46.924103 28.308743,46.763508 27.929300,46.286201 
z"/>
<path fill="#F76E46" opacity="1.000000" stroke="none" 
	d="
M101.284180,47.074524 
	C101.172401,46.804195 101.374924,46.519089 101.811539,46.109245 
	C101.896576,46.342922 101.747536,46.701332 101.284180,47.074524 
z"/>
<path fill="#FFFFF9" opacity="1.000000" stroke="none" 
	d="
M101.311050,61.071045 
	C101.103699,60.707520 101.290825,60.442844 101.773666,60.118172 
	C101.869301,60.373039 101.748016,60.743614 101.311050,61.071045 
z"/>
<path fill="#FFFFF9" opacity="1.000000" stroke="none" 
	d="
M101.986923,51.665806 
	C101.700943,51.768505 101.442673,51.544186 101.073608,51.084042 
	C101.313423,51.011742 101.664032,51.175266 101.986923,51.665806 
z"/>
<path fill="#001623" opacity="1.000000" stroke="none" 
	d="
M77.136520,113.993515 
	C77.050613,113.827164 77.475288,113.646622 77.700310,113.697670 
	C77.691032,113.885765 77.456734,114.022820 77.136520,113.993515 
z"/>
<path fill="#FFFFF9" opacity="1.000000" stroke="none" 
	d="
M28.686596,50.819534 
	C28.827419,51.139919 28.618095,51.442596 28.165928,51.881931 
	C28.060873,51.612999 28.198662,51.207409 28.686596,50.819534 
z"/>
<path fill="#30AB90" opacity="1.000000" stroke="none" 
	d="
M47.168304,98.800316 
	C47.015251,101.495064 47.586567,106.143654 46.573681,106.519180 
	C43.502167,107.657913 39.812428,107.277832 36.376087,107.150467 
	C35.736729,107.126770 34.863079,105.602135 34.620644,104.638588 
	C34.305748,103.387016 34.665897,101.980995 34.470730,100.681198 
	C33.717319,95.663589 35.700638,93.516144 40.790939,94.325348 
	C41.928024,94.506096 43.106167,94.428619 44.585190,94.870369 
	C42.411564,97.024338 39.918152,98.777969 37.105900,100.755844 
	C38.689915,104.859528 40.191425,105.289421 43.869946,101.688751 
	C44.912716,100.668030 46.065807,99.760017 47.168304,98.800316 
z"/>
<path fill="#30AB90" opacity="1.000000" stroke="none" 
	d="
M47.218906,61.832207 
	C47.332169,62.142124 47.573681,62.467457 47.538570,62.759541 
	C47.235378,65.281677 47.478874,69.631317 46.432285,69.971825 
	C43.298725,70.991318 39.603180,70.778343 36.247269,70.263168 
	C35.432800,70.138138 34.654770,67.015694 34.590450,65.244987 
	C34.321461,57.840137 34.423351,57.835388 41.652512,57.859440 
	C42.479763,57.862194 43.306950,57.884823 44.432060,58.272427 
	C42.510269,60.320118 40.290581,61.993618 37.190384,64.330963 
	C37.477795,64.744728 38.206795,66.787468 39.574596,67.397194 
	C40.418121,67.773209 42.312424,66.066727 43.594490,65.107460 
	C44.892712,64.136108 46.017918,62.933514 47.218906,61.832207 
z"/>
<path fill="#2AA98E" opacity="1.000000" stroke="none" 
	d="
M46.820801,80.896500 
	C46.820805,83.368263 46.820805,85.840019 46.820805,88.720444 
	C43.052311,88.720444 39.192448,88.720444 35.343616,88.720444 
	C32.802959,77.375839 33.687168,76.170860 44.551937,76.893768 
	C43.024708,79.403244 41.637791,82.403450 37.832146,81.105484 
	C37.754272,81.078926 36.440109,83.478348 36.725742,83.781227 
	C38.453907,85.613785 40.440197,87.247963 42.918976,84.637123 
	C44.158157,83.331932 45.516407,82.139778 46.820801,80.896500 
z"/>
<path fill="#688287" opacity="1.000000" stroke="none" 
	d="
M69.949921,60.227745 
	C73.095398,60.237518 75.764725,60.101723 78.400978,60.336800 
	C79.315681,60.418369 80.148422,61.419144 81.018600,62.000076 
	C80.251175,62.640709 79.495193,63.821541 78.714554,63.838081 
	C71.246536,63.996323 63.773327,64.016785 56.304836,63.888599 
	C55.516411,63.875069 54.748688,62.655464 53.971363,61.995399 
	C54.817711,61.411324 55.644604,60.358463 56.513695,60.322392 
	C60.823273,60.143532 65.143990,60.232960 69.949921,60.227745 
z"/>
<path fill="#748C90" opacity="1.000000" stroke="none" 
	d="
M56.455696,68.115013 
	C60.889648,68.102089 64.881020,67.977608 68.852135,68.205666 
	C69.849068,68.262917 70.781029,69.451584 71.742844,70.120270 
	C70.724579,70.726730 69.730591,71.802124 68.683746,71.856331 
	C64.710907,72.062019 60.716755,72.035248 56.740440,71.864967 
	C55.784950,71.824051 54.867420,70.896545 53.932434,70.376778 
	C54.623493,69.629181 55.314556,68.881584 56.455696,68.115013 
z"/>
<path fill="#096A61" opacity="1.000000" stroke="none" 
	d="
M47.392754,61.499840 
	C46.017918,62.933514 44.892712,64.136108 43.594490,65.107460 
	C42.312424,66.066727 40.418121,67.773209 39.574596,67.397194 
	C38.206795,66.787468 37.477795,64.744728 37.190384,64.330963 
	C40.290581,61.993618 42.510269,60.320118 44.882637,58.346210 
	C46.493488,57.491062 47.951656,56.936317 49.409828,56.381577 
	C48.795418,57.976875 48.181007,59.572178 47.392754,61.499840 
z"/>
<path fill="#0B6A61" opacity="1.000000" stroke="none" 
	d="
M46.889431,80.548836 
	C45.516407,82.139778 44.158157,83.331932 42.918976,84.637123 
	C40.440197,87.247963 38.453907,85.613785 36.725742,83.781227 
	C36.440109,83.478348 37.754272,81.078926 37.832146,81.105484 
	C41.637791,82.403450 43.024708,79.403244 44.994118,76.982254 
	C45.585686,76.269470 45.999889,75.670837 46.563293,75.445900 
	C47.449505,75.092079 48.436176,74.989876 49.380314,74.781136 
	C49.257236,75.741623 49.344574,76.799889 48.955627,77.636818 
	C48.510677,78.594261 47.642403,79.354973 46.889431,80.548836 
z"/>
<path fill="#06675F" opacity="1.000000" stroke="none" 
	d="
M47.327499,98.457336 
	C46.065807,99.760017 44.912716,100.668030 43.869946,101.688751 
	C40.191425,105.289421 38.689915,104.859528 37.105900,100.755844 
	C39.918152,98.777969 42.411564,97.024338 45.022133,94.990967 
	C46.508171,93.997612 47.877048,93.284012 49.245926,92.570404 
	C49.539864,92.938255 49.833801,93.306107 50.127739,93.673965 
	C49.247391,95.154091 48.367043,96.634216 47.327499,98.457336 
z"/>
<path fill="#748C90" opacity="1.000000" stroke="none" 
	d="
M63.234383,100.687653 
	C60.507565,100.694107 58.173126,100.802170 55.882397,100.535202 
	C55.181553,100.453522 54.600677,99.342438 53.964863,98.702766 
	C54.638363,98.126060 55.275784,97.111092 55.991901,97.052147 
	C58.460670,96.848923 60.967598,96.852524 63.436165,97.060356 
	C64.175308,97.122597 64.836525,98.110245 65.533440,98.673927 
	C64.903481,99.330963 64.273529,99.987999 63.234383,100.687653 
z"/>
<path fill="#698288" opacity="1.000000" stroke="none" 
	d="
M56.311710,78.755173 
	C60.064644,78.731483 63.358631,78.731483 67.854958,78.731483 
	C64.837578,81.903809 56.068428,83.014297 54.671864,81.375931 
	C54.410133,81.068886 55.426308,79.672523 56.311710,78.755173 
z"/>
<path fill="#658085" opacity="1.000000" stroke="none" 
	d="
M60.835648,90.114555 
	C58.211212,89.907532 56.041626,89.696945 53.872040,89.486359 
	C53.909653,88.635101 53.947269,87.783836 53.984886,86.932579 
	C56.869583,86.932579 59.758656,86.852547 62.634781,87.009583 
	C63.127209,87.036461 63.564381,88.075310 64.027077,88.646675 
	C63.114883,89.134781 62.202686,89.622887 60.835648,90.114555 
z"/>
<path fill="#122934" opacity="1.000000" stroke="none" 
	d="
M109.412529,104.554337 
	C110.410271,105.673111 111.159370,106.544350 111.902252,107.408363 
	C103.841003,114.887299 91.853310,114.747559 83.774193,107.209869 
	C75.307404,99.310493 74.327431,86.900154 81.908501,77.384926 
	C91.022797,86.387688 100.093338,95.347244 109.412529,104.554337 
M80.819801,96.586266 
	C82.378433,101.874870 85.931519,105.464989 90.696281,107.923553 
	C93.349472,109.292580 96.153656,110.579552 97.777931,106.066856 
	C100.782776,111.539413 103.762962,108.585640 105.279541,108.321281 
	C97.368675,100.050400 89.457817,91.779518 81.228836,83.176041 
	C81.228836,85.582047 81.228836,88.315765 81.228836,91.049492 
	C81.366379,91.009712 81.503922,90.969940 81.641464,90.930168 
	C81.285873,92.568245 80.930290,94.206322 80.819801,96.586266 
z"/>
<path fill="#192C36" opacity="1.000000" stroke="none" 
	d="
M86.951508,76.088951 
	C84.747169,74.873245 84.537277,73.746712 86.790733,72.178375 
	C94.544998,66.781624 106.148277,68.212021 113.692604,75.617561 
	C120.559319,82.357964 122.131851,94.741096 116.850296,102.123390 
	C116.349861,102.822876 114.471138,102.536270 113.323959,102.107811 
	C115.246094,97.975838 118.285385,94.521233 113.914841,90.800430 
	C117.263298,87.528816 116.716179,84.573059 111.849701,78.690353 
	C105.337601,72.390839 101.499634,71.420166 97.459961,74.011642 
	C95.418831,73.315590 93.417465,72.955467 91.630615,73.420174 
	C89.953026,73.856461 88.502144,75.164497 86.951508,76.088951 
z"/>
<path fill="#F1EFE8" opacity="1.000000" stroke="none" 
	d="
M87.079819,76.394859 
	C88.502144,75.164497 89.953026,73.856461 91.630615,73.420174 
	C93.417465,72.955467 95.418831,73.315590 97.459961,74.011642 
	C101.499634,71.420166 105.337601,72.390839 111.561951,78.685692 
	C111.011520,78.981361 110.628220,78.964188 109.859177,78.827652 
	C107.363602,80.243164 105.335152,81.910393 103.119347,83.272926 
	C101.188683,84.460114 99.046616,85.303505 96.997963,86.298820 
	C93.734680,83.099472 90.471405,79.900116 87.079819,76.394859 
z"/>
<path fill="#F2EFE8" opacity="1.000000" stroke="none" 
	d="
M110.244919,78.947006 
	C110.628220,78.964188 111.011520,78.981361 111.682571,79.003204 
	C116.716179,84.573059 117.263298,87.528816 113.914841,90.800430 
	C118.285385,94.521233 115.246094,97.975838 113.181908,101.790924 
	C109.681541,98.913689 106.414886,95.753677 103.055099,91.910118 
	C103.669060,89.552910 104.182243,87.759239 105.127037,86.232712 
	C106.686310,83.713348 108.524361,81.366539 110.244919,78.947006 
z"/>
<path fill="#1E333E" opacity="1.000000" stroke="none" 
	d="
M109.859177,78.827652 
	C108.524361,81.366539 106.686310,83.713348 105.127037,86.232712 
	C104.182243,87.759239 103.669060,89.552910 102.883255,91.615570 
	C100.972702,90.284828 99.140862,88.565071 97.153496,86.572067 
	C99.046616,85.303505 101.188683,84.460114 103.119347,83.272926 
	C105.335152,81.910393 107.363602,80.243164 109.859177,78.827652 
z"/>
<path fill="#EEECE5" opacity="1.000000" stroke="none" 
	d="
M80.697250,96.215332 
	C80.930290,94.206322 81.285873,92.568245 81.641464,90.930168 
	C81.503922,90.969940 81.366379,91.009712 81.228836,91.049492 
	C81.228836,88.315765 81.228836,85.582047 81.228836,83.176041 
	C89.457817,91.779518 97.368675,100.050400 105.279541,108.321281 
	C103.762962,108.585640 100.782776,111.539413 97.777931,106.066856 
	C96.153656,110.579552 93.349472,109.292580 90.696281,107.923553 
	C85.931519,105.464989 82.378433,101.874870 80.697250,96.215332 
z"/>
</svg>